<?xml version="1.0" standalone="no"?>
<!DOCTYPE svg PUBLIC "-//W3C//DTD SVG 20010904//EN"
 "http://www.w3.org/TR/2001/REC-SVG-20010904/DTD/svg10.dtd">
<svg version="1.0" xmlns="http://www.w3.org/2000/svg"
 width="700.000000pt" height="700.000000pt" viewBox="0 0 700.000000 700.000000"
 preserveAspectRatio="xMidYMid meet">
<metadata>
Created by potrace 1.14, written by Peter Selinger 2001-2017
</metadata>
<g transform="translate(0.000000,700.000000) scale(0.100000,-0.100000)"
fill="#000000" stroke="none">
<path d="M3484 6968 c-5 -13 -9 -25 -9 -28 -1 -3 -5 -14 -10 -25 -5 -11 -71
-177 -147 -370 -76 -192 -147 -370 -158 -395 -20 -46 -437 -1096 -517 -1300
-24 -63 -49 -124 -53 -135 -5 -11 -109 -270 -230 -575 -121 -305 -225 -563
-230 -572 -6 -10 -10 -23 -10 -29 0 -6 -7 -25 -15 -42 -13 -29 -148 -368 -362
-907 -46 -118 -89 -224 -93 -235 -10 -22 -122 -304 -249 -625 -45 -113 -86
-214 -91 -225 -32 -69 -79 -208 -74 -217 4 -7 3 -8 -4 -4 -7 4 -12 3 -12 -1 0
-5 17 -16 38 -26 20 -9 53 -27 72 -38 29 -18 420 -238 570 -321 25 -14 63 -35
85 -48 193 -109 262 -148 275 -153 8 -4 31 -16 50 -28 19 -11 80 -46 135 -76
55 -31 133 -76 173 -100 40 -23 75 -43 78 -43 4 0 176 -96 214 -120 8 -5 36
-20 62 -34 26 -15 137 -76 245 -138 109 -61 217 -122 240 -135 l43 -23 162 91
c229 129 220 124 295 165 37 21 85 48 105 61 21 13 40 23 43 23 2 0 39 20 81
45 41 25 77 45 79 45 2 0 97 53 212 118 114 65 235 133 268 151 67 37 117 65
225 127 41 24 102 58 136 76 264 143 664 374 664 384 0 11 -31 94 -56 149 -7
17 -52 129 -99 250 -47 121 -95 240 -105 265 -11 25 -38 92 -60 150 -22 58
-45 114 -50 125 -5 11 -21 52 -36 90 -14 39 -32 84 -39 100 -8 17 -52 127 -98
245 -144 365 -657 1654 -667 1675 -8 17 -326 819 -487 1225 -25 63 -51 129
-58 145 -7 17 -61 152 -120 300 -58 149 -110 279 -115 290 -5 11 -64 157 -130
325 -124 312 -148 370 -155 370 -2 0 -7 -10 -11 -22z"/>
</g>
</svg>
