<?xml version="1.0" standalone="no"?>
<!DOCTYPE svg PUBLIC "-//W3C//DTD SVG 20010904//EN"
 "http://www.w3.org/TR/2001/REC-SVG-20010904/DTD/svg10.dtd">
<svg version="1.0" xmlns="http://www.w3.org/2000/svg"
 width="500.000000pt" height="500.000000pt" viewBox="0 0 500.000000 500.000000"
 preserveAspectRatio="xMidYMid meet">

<g transform="translate(0.000000,500.000000) scale(0.100000,-0.100000)"
fill="#000000" stroke="none">
<path d="M0 2500 l0 -2500 2500 0 2500 0 0 2500 0 2500 -2500 0 -2500 0 0
-2500z m1450 1280 l0 -50 -327 -2 -328 -3 -3 -202 -2 -203 295 0 295 0 0 -50
0 -50 -295 0 -295 0 0 -210 0 -210 343 -2 342 -3 3 -52 3 -53 -405 0 -406 0 0
570 0 570 390 0 390 0 0 -50z m720 -200 l0 -30 -120 0 -120 0 0 -315 0 -315
-40 0 -40 0 0 315 0 315 -120 0 -120 0 0 30 0 30 280 0 280 0 0 -30z m250
-125 l0 -155 213 2 212 3 3 153 3 152 34 0 35 0 0 -345 0 -345 -35 0 -35 0 0
160 0 160 -215 0 -215 0 0 -160 0 -160 -40 0 -40 0 0 345 0 345 40 0 40 0 0
-155z m1260 125 l0 -30 -200 0 -200 0 0 -125 0 -125 180 0 180 0 0 -30 0 -30
-180 0 -180 0 0 -130 0 -130 205 0 205 0 0 -30 0 -30 -245 0 -245 0 0 345 0
345 240 0 240 0 0 -30z m650 4 c169 -79 186 -313 30 -402 l-49 -28 79 -111
c44 -61 80 -114 80 -117 0 -3 -17 -6 -38 -6 -37 0 -40 3 -115 110 l-77 110
-120 0 -120 0 0 -110 0 -110 -40 0 -40 0 0 346 0 346 183 -4 c159 -3 188 -6
227 -24z m-3059 -1298 c81 -17 176 -64 230 -113 l40 -36 -37 -38 -37 -38 -36
28 c-148 116 -376 134 -545 43 -110 -59 -198 -178 -226 -303 -17 -78 -8 -210
19 -281 48 -124 149 -223 279 -271 46 -17 79 -21 172 -21 130 0 192 18 270 77
24 18 49 36 56 42 10 7 24 0 51 -28 l38 -38 -41 -37 c-168 -151 -459 -175
-684 -56 -128 67 -237 207 -274 351 -20 77 -21 231 -1 306 53 204 224 367 429
412 81 18 215 18 297 1z m1047 -482 c106 -268 191 -488 189 -490 -2 -2 -91 46
-198 106 l-194 109 -40 -23 c-160 -93 -345 -194 -345 -188 -1 14 383 972 389
972 3 0 93 -219 199 -486z m1517 245 c30 -11 57 -24 60 -29 5 -8 -7 -41 -19
-57 -1 -1 -29 9 -62 22 -75 31 -179 34 -240 6 -72 -33 -94 -121 -41 -168 32
-30 52 -38 162 -68 112 -30 148 -46 187 -83 90 -84 44 -234 -85 -279 -102 -35
-254 -18 -342 38 l-46 29 16 30 15 30 39 -26 c54 -35 122 -54 197 -54 112 0
174 42 174 117 0 72 -36 97 -217 144 -100 26 -164 64 -186 112 -53 110 19 228
156 257 60 13 168 3 232 -21z m-782 15 c58 -10 138 -63 164 -109 65 -117 24
-269 -89 -323 l-36 -17 50 -70 c28 -38 66 -91 85 -117 l35 -48 -44 0 -43 1
-75 109 -75 109 -122 1 -123 0 0 -110 0 -110 -35 0 -35 0 0 345 0 345 153 0
c83 0 169 -3 190 -6z"/>
<path d="M4000 3375 l0 -177 133 4 c118 3 137 6 176 28 112 64 108 236 -7 292
-37 17 -69 22 -174 26 l-128 5 0 -178z"/>
<path d="M2780 1835 l0 -177 133 4 c112 4 138 8 175 26 57 30 82 73 82 142 0
78 -23 119 -85 150 -43 21 -67 25 -177 28 l-128 4 0 -177z"/>
</g>
</svg>
